<?xml version="1.0" standalone="no"?>
<!DOCTYPE svg PUBLIC "-//W3C//DTD SVG 20010904//EN"
 "http://www.w3.org/TR/2001/REC-SVG-20010904/DTD/svg10.dtd">
<svg version="1.0" xmlns="http://www.w3.org/2000/svg"
 width="263.000000pt" height="263.000000pt" viewBox="0 0 263.000000 263.000000"
 preserveAspectRatio="xMidYMid meet">

<g transform="translate(0.000000,263.000000) scale(0.100000,-0.100000)"
fill="#000000" stroke="none">
<path d="M1145 2619 c-219 -30 -444 -122 -621 -255 -91 -69 -236 -220 -295
-309 -99 -148 -180 -347 -210 -515 -17 -97 -17 -353 0 -450 30 -167 110 -365
209 -515 60 -90 257 -287 347 -347 150 -99 348 -179 515 -209 97 -17 353 -17
450 0 167 30 365 110 515 209 90 60 287 257 347 347 99 150 179 348 209 515
17 97 17 353 0 450 -30 167 -110 365 -209 515 -60 90 -257 287 -347 347 -145
95 -327 171 -489 204 -91 18 -330 26 -421 13z m415 -370 c149 -38 292 -121
413 -238 84 -81 103 -106 88 -116 -5 -3 -45 30 -88 73 -153 153 -295 227 -518
268 -110 20 -212 14 -346 -20 -180 -46 -309 -122 -442 -263 -45 -48 -77 -66
-77 -44 0 20 128 145 201 196 131 93 273 148 424 165 97 11 256 1 345 -21z
m-1060 -538 c0 -11 -5 -32 -12 -48 -6 -15 -21 -66 -32 -112 -22 -85 -46 -119
-46 -64 0 30 45 195 61 225 13 24 29 23 29 -1z m1704 -63 c34 -100 46 -193 25
-186 -8 3 -19 31 -26 66 -7 34 -22 89 -33 121 -24 71 -24 81 -7 81 8 0 25 -35
41 -82z m-1084 37 c0 -9 -7 -18 -16 -22 -18 -7 -39 11 -30 26 11 17 46 13 46
-4z m590 -99 c0 -114 -7 -139 -33 -117 -8 6 -18 6 -27 1 -73 -46 -138 83 -74
147 20 20 32 24 55 19 27 -5 29 -3 29 23 0 32 7 41 32 41 16 0 18 -10 18 -114z
m-812 82 c2 -12 -5 -17 -25 -20 -28 -3 -28 -3 -33 -93 -5 -82 -7 -90 -25 -90
-18 0 -20 8 -23 93 l-3 92 -29 0 c-29 0 -40 17 -23 34 4 4 41 5 82 4 62 -2 76
-6 79 -20z m899 -2 c10 -13 23 -32 29 -42 10 -17 13 -15 33 24 14 27 28 42 41
42 31 0 30 -12 -5 -72 -23 -39 -35 -73 -37 -105 -3 -40 -6 -48 -23 -48 -17 0
-21 8 -25 50 -3 30 -18 72 -38 106 -17 31 -29 59 -25 62 13 13 32 7 50 -17z
m-830 -37 c8 -8 17 -8 31 0 30 16 42 14 42 -9 0 -13 -9 -22 -25 -26 -26 -7
-33 -22 -37 -89 -2 -32 -7 -40 -23 -40 -18 0 -20 8 -23 74 -4 96 5 120 35 90z
m148 -79 c0 -78 -2 -85 -20 -85 -18 0 -20 8 -23 74 -3 86 1 104 25 99 16 -3
18 -15 18 -88z m93 78 c9 -9 15 -9 24 0 20 20 55 13 77 -14 28 -35 27 -93 -1
-129 -17 -22 -27 -26 -54 -22 -32 5 -33 4 -36 -31 -2 -30 -8 -38 -25 -40 -23
-3 -23 -2 -23 116 0 132 6 152 38 120z m287 -13 c54 -53 18 -155 -55 -155 -19
0 -40 9 -55 25 -54 53 -18 155 55 155 19 0 40 -9 55 -25z m-136 -528 c-16 -12
-32 -57 -21 -57 3 0 19 12 34 27 15 15 28 22 28 17 0 -6 -13 -23 -30 -39 -34
-33 -38 -50 -12 -64 13 -8 8 -10 -27 -11 -41 0 -43 1 -25 14 18 14 18 16 -20
55 -46 47 -44 64 3 26 l31 -27 0 26 c0 16 -6 26 -15 26 -8 0 -15 5 -15 10 0 6
19 10 43 10 35 -1 39 -3 26 -13z m-878 -24 c84 -215 214 -376 387 -477 95 -55
151 -77 270 -107 59 -14 92 -27 92 -36 0 -7 -1 -13 -2 -13 -21 0 -167 34 -208
48 -248 86 -464 295 -555 536 -29 78 -29 76 -10 76 9 0 20 -12 26 -27z m1729
13 c0 -7 -13 -44 -28 -82 -96 -232 -317 -438 -554 -519 -63 -21 -189 -45 -200
-39 -18 12 8 23 105 49 171 44 293 111 410 224 104 100 190 231 226 344 12 35
41 52 41 23z"/>
<path d="M1612 1588 c-26 -26 -8 -88 25 -88 23 0 38 46 25 75 -13 27 -31 32
-50 13z"/>
<path d="M1227 1594 c-14 -14 -8 -84 8 -90 26 -10 46 16 43 55 -2 27 -8 37
-23 39 -12 2 -24 0 -28 -4z"/>
<path d="M1414 1587 c-3 -8 -4 -30 -2 -49 2 -28 7 -33 28 -33 23 0 25 4 25 45
0 39 -3 45 -23 48 -13 2 -24 -3 -28 -11z"/>
</g>
</svg>
